PathFileType        4      (X/Y/Z)      C:\Users\ibrah\OneDrive - KTH\Model Validation - Orthoload\rmr-solver-1.0 - original\rmr-solver-1.0\ExperimentalData\S8R\trc\transformed_MSbfkg1.trc         
DataRate	CameraRate	NumFrames	NumMarkers	Units	OrigDataRate	OrigDataStartFrame	OrigNumFrames
50.0	50.0	7	27	mm	50.0	249	398
Frame#	Time	IJ			PX			C7			T8			SC			AA			TS			AI			PC			ACv			ACd			GH			EM			EL			EM2			EL2			US			RS			US2			RS2			MCP2			MCP5			SCREWAA			SCREWTS			SCREWAI			ACvloc			ACdloc			
		X1	Y1	Z1	X2	Y2	Z2	X3	Y3	Z3	X4	Y4	Z4	X5	Y5	Z5	X6	Y6	Z6	X7	Y7	Z7	X8	Y8	Z8	X9	Y9	Z9	X10	Y10	Z10	X11	Y11	Z11	X12	Y12	Z12	X13	Y13	Z13	X14	Y14	Z14	X15	Y15	Z15	X16	Y16	Z16	X17	Y17	Z17	X18	Y18	Z18	X19	Y19	Z19	X20	Y20	Z20	X21	Y21	Z21	X22	Y22	Z22	X23	Y23	Z23	X24	Y24	Z24	X25	Y25	Z25	X26	Y26	Z26	X27	Y27	Z27	
249	4.96	51.06042102609935	-20.14881341675641	-1.997013334400774	71.14783616874121	-167.3309497729346	12.24307331342705	-55.55432621684209	91.73608234109693	-23.09894094379218	-164.2692207124252	-89.61056203040222	-26.95880297191193	43.56295634966372	-8.24978442380323	20.57567883073434	-73.66441232410507	35.91823252353737	167.0343886093254	-108.0796196277642	53.15245671452892	75.39583080485853	-173.6195610408947	-97.32442334531737	49.56980304080189	-1.930210656747122	14.60937563478723	128.9971852981091	-38.15142297143439	59.18342993311429	153.4436797104525	-38.15142297143439	59.18342993311429	153.4436797104525	-84.40705440750759	8.501087856840558	175.286812314222	-237.7890904033337	-237.0897477171266	201.477921872519	-236.2622387897713	-216.7985964238822	270.4477176552046													-345.6845747526253	-415.7012854476447	306.3049125486022	-384.0776909103093	-383.5092993357048	336.6472960239258																						
250	4.98	48.54904067705849	-18.7823717517531	-2.09226011030937	70.23841906489002	-165.7743566990029	11.74277935063722	-59.29036828436161	92.00212964814408	-22.76401484779199	-166.0500517743025	-90.4902151528485	-26.94436701671926	40.95425733097991	-7.023560160122407	20.52128317643144	-76.96094569844377	34.76193176391633	167.7929507746998	-112.1914864237876	51.4610120032106	76.36747042099277	-175.3930345144587	-100.0548508864975	50.86520745739151	-5.113687078143743	14.64923320238772	129.3184087988708	-41.91784735549981	58.61106401817265	154.0008234456168	-41.91784735549981	58.61106401817265	154.0008234456168	-87.53491043834654	6.414658043689522	175.547821332356	-234.0353025023154	-243.3411610856639	201.6866619083569	-232.4152807448136	-223.4461734291344	270.7759453009042													-334.4412184591988	-425.7692928382687	306.7547056559189	-373.7157998960569	-395.0481550443035	337.5099822753272																						
251	5.0	45.8647706643355	-17.41509543248155	-2.134334352917175	69.20240906589717	-164.1895663961064	11.3095766692064	-63.22135612731191	92.21476290824484	-22.40823266079689	-167.9484417711727	-91.43902142907352	-26.92361728217938	38.16539056106895	-5.798644946238279	20.51728377156982	-80.44886014584175	33.54367218805454	168.553330825038	-116.5034491681606	49.65962870804663	77.34544622545727	-177.2627303888615	-102.8979849847858	52.18215433979403	-8.502393776224963	14.66495718733171	129.6383466438656	-45.9013623100411	57.98741057902681	154.5560017791462	-45.9013623100411	57.98741057902681	154.5560017791462	-90.81783522773809	4.188953388504894	175.7840354906153	-229.8767900157467	-249.7529602639076	201.9330024943477	-228.1667085763345	-230.2322969632552	271.1366945269679													-322.3768321690345	-435.838642477832	307.2893111730118	-362.5537632473593	-406.67297480508	338.4006177928206																						
252	5.02	43.01644078201198	-16.05966519360099	-2.1198834673354	68.03700320901336	-162.5901689286082	10.94287486814577	-67.32942778200965	92.36979569787998	-22.02183102158403	-169.9608446068272	-92.45074730865485	-26.88666419095096	35.20712795777623	-4.587675562764698	20.56758239603359	-84.10329700788408	32.26103380510045	169.3148224071026	-120.9876069137481	47.75665996346243	78.3306131351095	-179.2183093237619	-105.8324971548209	53.50754052010545	-12.07569530450317	14.64841108177033	129.9549802569531	-50.07492989525921	57.30618330022913	155.1108931182115	-50.07492989525921	57.30618330022913	155.1108931182115	-94.22356383621191	1.824636357396922	175.9966204011857	-225.2795757049083	-256.2779209602444	202.2119528584979	-223.4779547288905	-237.1062294114378	271.5238879678587													-309.4948726178939	-445.8160632486142	307.8911656011693	-350.5897005056594	-418.2900274649304	339.2941810665783																						
253	5.04	40.01573258546645	-14.72895641430287	-2.047643687606219	66.74140161487595	-160.9906207352282	10.638890998353	-71.59360504176871	92.46401418496369	-21.59539888135436	-172.0822597259578	-93.5180204023068	-26.82401687741396	32.09336596998954	-3.403518697091834	20.67413061448746	-87.8944385619144	30.91184687008942	170.0778301567082	-125.6117073028828	45.7618495843225	79.32525632490507	-181.2475158592221	-108.8357187233655	54.82908616311813	-15.8080868904677	14.59109524774282	130.2670635591886	-54.40614240939675	56.56121377475873	155.6683087988298	-54.40614240939675	56.56121377475873	155.6683087988298	-97.71521233351375	-0.6752137826700021	176.1885593866507	-220.2157005331338	-262.8634681490055	202.5173581327252	-218.3135568145012	-244.0120498131714	271.9298512974748													-295.8097289731145	-455.6057379284911	308.5382743365651	-337.8307419581129	-429.8020602985942	340.1642550630918																						
254	5.06	36.87702106398266	-13.43562200548354	-1.918592585307998	65.31692037337586	-159.4057929879881	10.39088659517369	-75.99015292625027	92.49534586669745	-21.1205837350793	-174.306231550029	-94.63245782568734	-26.72718546785703	28.84087498018906	-2.258813388952068	20.83672778659324	-91.78827321464625	29.49477597342355	170.8435751814235	-130.3399673029651	43.68632266815705	80.33270023900594	-183.3364058001328	-111.8841976248322	56.13576458527655	-19.66978469112769	14.48481670555291	130.57395387509	-58.85804723462207	55.74713669707157	156.2317746815135	-58.85804723462207	55.74713669707157	156.2317746815135	-101.2525396896796	-3.304543095752283	176.3645197607705	-214.6655358613763	-269.4522789972295	202.8424226905792	-212.6435558074785	-250.8891337124484	272.3457527617559													-281.347474075715	-465.110782476903	309.2055724972025	-324.2936323748478	-441.1094736364805	340.9848510802472																						
255	5.08	33.61717740977697	-12.19165371199752	-1.735981846343972	63.76708810256659	-157.8504738319461	10.18957774088359	-80.4929782995119	92.46301488391087	-20.59075451538262	-176.6248327060597	-95.7848029126085	-26.58922710624154	25.46899830158555	-1.165490063201918	21.05293345534586	-95.7475447583847	28.00994615487981	171.613722174818	-135.1340177730011	41.54259377108501	81.35681395565639	-185.4696352531052	-114.9542026873279	57.41814790065123	-23.62748896126765	14.32239992904582	130.8753829126396	-63.39016046755392	54.86010838378091	156.805035376063	-63.39016046755392	54.86010838378091	156.805035376063	-104.7933779052309	-6.053845279036246	176.5306083002587	-208.6197930008292	-275.9831502942525	203.1802439233118	-206.4459015105794	-257.6729095124923	272.7621048248352													-266.1463242186257	-474.2348595682866	309.8664427777155	-310.0051856146678	-452.1116458097638	341.7322043299444																						
